<svg xmlns="http://www.w3.org/2000/svg" xmlns:xlink="http://www.w3.org/1999/xlink" aria-hidden="true" role="img" class="iconify iconify--logos" width="35.93" height="32" preserveAspectRatio="xMidYMid meet" viewBox="0 0 256 228"><path fill="#00D8FF" d="M210.483 73.824a171.49 171.49 0 0 0-8.24-2.597c.465-1.9.893-3.777 1.273-5.621c6.238-30.281 2.16-54.676-11.769-62.708c-13.355-7.7-35.196.329-57.254 19.526a171.23 171.23 0 0 0-6.375 5.848a155.866 155.866 0 0 0-4.241-3.917C100.759 3.829 77.587-4.822 63.673 3.233C50.33 10.957 46.379 33.89 51.995 62.588a170.974 170.974 0 0 0 1.892 8.48c-3.28.932-6.445 1.924-9.474 2.98C17.309 83.498 0 98.307 0 113.668c0 15.865 18.582 31.778 46.812 41.427a145.52 145.52 0 0 0 6.921 2.165a167.467 167.467 0 0 0-2.01 9.138c-5.354 28.2-1.173 50.591 12.134 58.266c13.744 7.926 36.812-.22 59.273-19.855a145.567 145.567 0 0 0 5.342-4.923a168.064 168.064 0 0 0 6.92 6.314c21.758 18.722 43.246 26.282 56.54 18.586c13.731-7.949 18.194-32.003 12.4-61.268a145.016 145.016 0 0 0-1.535-6.842c1.62-.48 3.21-.974 4.76-1.488c29.348-9.723 48.443-25.443 48.443-41.52c0-15.417-17.868-30.326-45.517-39.844Zm-6.365 70.984c-1.4.463-2.836.91-4.3 1.345c-3.24-10.257-7.612-21.163-12.963-32.432c5.106-11 9.31-21.767 12.459-31.957c2.619.758 5.16 1.557 7.61 2.4c23.69 8.156 38.14 20.213 38.14 29.504c0 9.896-15.606 22.743-40.946 31.14Zm-10.514 20.834c2.562 12.94 2.927 24.64 1.23 33.787c-1.524 8.219-4.59 13.698-8.382 15.893c-8.067 4.67-25.32-1.4-43.927-17.412a156.726 156.726 0 0 1-6.437-5.87c7.214-7.889 14.423-17.06 21.459-27.246c12.376-1.098 24.068-2.894 34.671-5.345a134.17 134.17 0 0 1 1.386 6.193ZM87.276 214.515c-7.882 2.783-14.16 2.863-17.955.675c-8.075-4.657-11.432-22.636-6.853-46.752a156.923 156.923 0 0 1 1.869-8.499c10.486 2.32 22.093 3.988 34.498 4.994c7.084 9.967 14.501 19.128 21.976 27.15a134.668 134.668 0 0 1-4.877 4.492c-9.933 8.682-19.886 14.842-28.658 17.94ZM50.35 144.747c-12.483-4.267-22.792-9.812-29.858-15.863c-6.35-5.437-9.555-10.836-9.555-15.216c0-9.322 13.897-21.212 37.076-29.293c2.813-.98 5.757-1.905 8.812-2.773c3.204 10.42 7.406 21.315 12.477 32.332c-5.137 11.18-9.399 22.249-12.634 32.792a134.718 134.718 0 0 1-6.318-1.979Zm12.378-84.26c-4.811-24.587-1.616-43.134 6.425-47.789c8.564-4.958 27.502 2.111 47.463 19.835a144.318 144.318 0 0 1 3.841 3.545c-7.438 7.987-14.787 17.08-21.808 26.988c-12.04 1.116-23.565 2.908-34.161 5.309a160.342 160.342 0 0 1-1.76-7.887Zm110.427 27.268a347.8 347.8 0 0 0-7.785-12.803c8.168 1.033 15.994 2.404 23.343 4.08c-2.206 7.072-4.956 14.465-8.193 22.045a381.151 381.151 0 0 0-7.365-13.322Zm-45.032-43.861c5.044 5.465 10.096 11.566 15.065 18.186a322.04 322.04 0 0 0-30.257-.006c4.974-6.559 10.069-12.652 15.192-18.18ZM82.802 87.83a323.167 323.167 0 0 0-7.227 13.238c-3.184-7.553-5.909-14.98-8.134-22.152c7.304-1.634 15.093-2.97 23.209-3.984a321.524 321.524 0 0 0-7.848 12.897Zm8.081 65.352c-8.385-.936-16.291-2.203-23.593-3.793c2.26-7.3 5.045-14.885 8.298-22.6a321.187 321.187 0 0 0 7.257 13.246c2.594 4.48 5.28 8.868 8.038 13.147Zm37.542 31.03c-5.184-5.592-10.354-11.779-15.403-18.433c4.902.192 9.899.29 14.978.29c5.218 0 10.376-.117 15.453-.343c-4.985 6.774-10.018 12.97-15.028 18.486Zm52.198-57.817c3.422 7.8 6.306 15.345 8.596 22.52c-7.422 1.694-15.436 3.058-23.88 4.071a382.417 382.417 0 0 0 7.859-13.026a347.403 347.403 0 0 0 7.425-13.565Zm-16.898 8.101a358.557 358.557 0 0 1-12.281 19.815a329.4 329.4 0 0 1-23.444.823c-7.967 0-15.716-.248-23.178-.732a310.202 310.202 0 0 1-12.513-19.846h.001a307.41 307.41 0 0 1-10.923-20.627a310.278 310.278 0 0 1 10.89-20.637l-.001.001a307.318 307.318 0 0 1 12.413-19.761c7.613-.576 15.42-.876 23.31-.876H128c7.926 0 15.743.303 23.354.883a329.357 329.357 0 0 1 12.335 19.695a358.489 358.489 0 0 1 11.036 20.54a329.472 329.472 0 0 1-11 20.722Zm22.56-122.124c8.572 4.944 11.906 24.881 6.52 51.026c-.344 1.668-.73 3.367-1.15 5.09c-10.622-2.452-22.155-4.275-34.23-5.408c-7.034-10.017-14.323-19.124-21.64-27.008a160.789 160.789 0 0 1 5.888-5.4c18.9-16.447 36.564-22.941 44.612-18.3ZM128 90.808c12.625 0 22.86 10.235 22.86 22.86s-10.235 22.86-22.86 22.86s-22.86-10.235-22.86-22.86s10.235-22.86 22.86-22.86Z"></path>
<defs>
<symbol id="icon-heart" viewBox="0 0 32 32">
<path stroke-linejoin="round" stroke-linecap="round" stroke-miterlimit="4" stroke-width="3.0667" d="M27.787 6.147c-0.681-0.681-1.49-1.222-2.379-1.591s-1.844-0.559-2.807-0.559-1.917 0.19-2.807 0.559c-0.89 0.369-1.699 0.909-2.38 1.591l-1.413 1.413-1.413-1.413c-1.376-1.376-3.241-2.148-5.187-2.148s-3.811 0.773-5.187 2.148c-1.376 1.376-2.148 3.241-2.148 5.187s0.773 3.811 2.148 5.187l11.787 11.787 11.787-11.787c0.681-0.681 1.222-1.49 1.591-2.38s0.559-1.844 0.559-2.807-0.19-1.917-0.559-2.807c-0.369-0.89-0.909-1.699-1.591-2.38z"></path>
</symbol>
<symbol id="icon-Horizontal-container" viewBox="0 0 32 32">
<path stroke-linejoin="round" stroke-linecap="round" stroke-miterlimit="4" stroke-width="2.4" d="M25.333 20v-16c-6.421 6.125-6.697 11.092-6.667 16h6.667zM25.333 20v8h-1.333v-4M10.667 5.333v22.667M6.667 5.333v4c0 1.061 0.421 2.078 1.172 2.828s1.768 1.172 2.828 1.172c1.061 0 2.078-0.421 2.828-1.172s1.172-1.768 1.172-2.828v-4"></path>
</symbol>
<symbol id="icon-Vertical-container-1" viewBox="0 0 32 32">
<path d="M26.36 9.64l0.013-0.013-4.96-4.96-1.413 1.413 2.813 2.813c-1.253 0.48-2.147 1.68-2.147 3.107 0 0.438 0.086 0.871 0.254 1.276s0.413 0.772 0.723 1.081c0.625 0.625 1.473 0.976 2.357 0.976 0.48 0 0.92-0.107 1.333-0.28v9.613c0 0.354-0.14 0.693-0.391 0.943s-0.589 0.391-0.943 0.391c-0.354 0-0.693-0.14-0.943-0.391s-0.391-0.589-0.391-0.943v-6c0-0.707-0.281-1.386-0.781-1.886s-1.178-0.781-1.886-0.781h-1.333v-9.333c0-0.707-0.281-1.386-0.781-1.886s-1.178-0.781-1.886-0.781h-8c-0.707 0-1.386 0.281-1.886 0.781s-0.781 1.178-0.781 1.886v21.333h13.333v-10h2v6.667c0 0.884 0.351 1.732 0.976 2.357s1.473 0.976 2.357 0.976c0.438 0 0.871-0.086 1.276-0.254s0.772-0.413 1.081-0.723c0.309-0.309 0.555-0.677 0.723-1.081s0.254-0.838 0.254-1.276v-12.667c0-0.92-0.373-1.76-0.973-2.36zM16 18v7.333h-8v-9.333h8v2zM16 13.333h-8v-6.667h8v6.667zM24 13.333c-0.354 0-0.693-0.14-0.943-0.39s-0.391-0.589-0.391-0.943 0.14-0.693 0.391-0.943c0.25-0.25 0.589-0.39 0.943-0.39s0.693 0.14 0.943 0.39c0.25 0.25 0.391 0.589 0.391 0.943s-0.14 0.693-0.391 0.943c-0.25 0.25-0.589 0.39-0.943 0.39z"></path>
</symbol>
<symbol id="icon-Vertical-container" viewBox="0 0 32 32">
<path d="M9.067 24.133h-4.4c-0.267 0-0.4-0.133-0.533-0.267s-0.267-0.4-0.133-0.667c0.8-2.267 2.8-3.6 5.067-3.6 2.8 0 5.067-2.4 5.067-5.2s-2.267-5.467-5.067-5.467c-2.8 0-5.067 2.4-5.067 5.333 0 1.333 0.533 2.667 1.333 3.6-1.733 0.933-3.067 2.4-3.867 4.4-0.267 0.933-0.133 2.133 0.533 3.067s1.6 1.467 2.667 1.467h4.4c0.8 0 1.333-0.533 1.333-1.333s-0.533-1.333-1.333-1.333zM6.667 14.267c0-1.467 1.067-2.533 2.4-2.533s2.4 1.2 2.4 2.533c0 1.467-1.067 2.533-2.4 2.533s-2.4-1.2-2.4-2.533z"></path>
<path d="M30.533 21.467c-0.933-2.533-2.8-4.4-4.933-5.467 1.2-1.067 1.867-2.667 1.867-4.533 0-3.467-2.667-6.267-5.867-6.267s-5.867 2.8-5.867 6.267c0 1.733 0.667 3.333 1.867 4.533-2.133 1.067-4 2.933-4.933 5.467-0.667 1.2-0.4 2.533 0.267 3.6s1.867 1.6 3.067 1.6h11.067c1.2 0 2.4-0.667 3.067-1.6 0.8-1.067 0.933-2.4 0.4-3.6zM18.267 11.6c0-2 1.467-3.6 3.2-3.6s3.2 1.6 3.2 3.6-1.467 3.6-3.2 3.6c-1.733 0-3.2-1.733-3.2-3.6zM27.867 23.6c-0.133 0.133-0.4 0.533-0.8 0.533h-11.067c-0.533 0-0.8-0.4-0.8-0.533-0.133-0.133-0.4-0.667-0.133-1.2 1.067-2.8 3.733-4.667 6.533-4.667s5.467 1.867 6.533 4.667c0.133 0.533-0.133 1.067-0.267 1.2z"></path>
</symbol>
<symbol id="icon-Container" viewBox="0 0 32 32">
<path stroke-linejoin="round" stroke-linecap="round" stroke-miterlimit="4" stroke-width="2.4" d="M22.667 14.667h2c0.53 0 1.039-0.211 1.414-0.586s0.586-0.884 0.586-1.414-0.211-1.039-0.586-1.414c-0.375-0.375-0.884-0.586-1.414-0.586h-2v6.667M22.667 22.667v5.333h1.333c0.707 0 1.386-0.281 1.886-0.781s0.781-1.178 0.781-1.886c0-0.707-0.281-1.385-0.781-1.886s-1.178-0.781-1.886-0.781h-1.333zM4 6.667c0 0.707 0.281 1.386 0.781 1.886s1.178 0.781 1.886 0.781c0.707 0 1.386-0.281 1.886-0.781s0.781-1.178 0.781-1.886c0-0.707-0.281-1.386-0.781-1.886s-1.178-0.781-1.886-0.781c-0.707 0-1.386 0.281-1.886 0.781s-0.781 1.178-0.781 1.886z"></path>
<path stroke-linejoin="round" stroke-linecap="round" stroke-miterlimit="4" stroke-width="2.4" d="M6.667 9.333v4c0 0.354 0.14 0.693 0.391 0.943s0.589 0.391 0.943 0.391h4M12 14.667v9.333c0 0.354 0.14 0.693 0.391 0.943s0.589 0.39 0.943 0.39h4M12 14.667h5.333"></path>
</symbol>
<symbol id="icon-beds" viewBox="0 0 32 32">
<path stroke-linejoin="round" stroke-linecap="round" stroke-miterlimit="4" stroke-width="2.24" d="M3 26v-7c0.003-1.060 0.426-2.076 1.175-2.825s1.765-1.172 2.825-1.175h18c1.060 0.003 2.076 0.426 2.825 1.175s1.172 1.765 1.175 2.825v7M24 15h-18v-6.5c0.002-0.662 0.266-1.297 0.734-1.766s1.103-0.732 1.766-0.734h15c0.662 0.002 1.297 0.266 1.766 0.734s0.732 1.103 0.734 1.766v6.5h-2z"></path>
<path stroke-linejoin="round" stroke-linecap="round" stroke-miterlimit="4" stroke-width="2.24" d="M3 26v-0.5c0.001-0.397 0.16-0.778 0.441-1.059s0.662-0.44 1.059-0.441h23c0.397 0.001 0.778 0.16 1.059 0.441s0.44 0.662 0.441 1.059v0.5M7 15v-1c0.002-0.53 0.213-1.038 0.587-1.413s0.883-0.586 1.413-0.587h5c0.53 0.002 1.038 0.213 1.413 0.587s0.586 0.883 0.587 1.413M16 14v1M16 14c0.001-0.53 0.213-1.038 0.587-1.413s0.883-0.586 1.413-0.587h5c0.53 0.002 1.038 0.213 1.413 0.587s0.586 0.883 0.587 1.413v1"></path>
</symbol>
<symbol id="icon-Route" viewBox="0 0 32 32">
<path d="M6.667 4c-1.473 0-2.667 1.194-2.667 2.667s1.194 2.667 2.667 2.667c1.473 0 2.667-1.194 2.667-2.667s-1.194-2.667-2.667-2.667zM1.333 6.667c0-2.946 2.388-5.333 5.333-5.333s5.333 2.388 5.333 5.333c0 2.946-2.388 5.333-5.333 5.333s-5.333-2.388-5.333-5.333z"></path>
<path d="M25.333 22.667c-1.473 0-2.667 1.194-2.667 2.667s1.194 2.667 2.667 2.667c1.473 0 2.667-1.194 2.667-2.667s-1.194-2.667-2.667-2.667zM20 25.333c0-2.945 2.388-5.333 5.333-5.333s5.333 2.388 5.333 5.333c0 2.946-2.388 5.333-5.333 5.333s-5.333-2.388-5.333-5.333z"></path>
<path d="M13.333 6.667c0-0.736 0.597-1.333 1.333-1.333h8.4c4.13 0 5.62 5.404 1.987 7.429l-15.473 8.804c-1.16 0.644-0.782 2.434 0.686 2.434h7.067c0.736 0 1.333 0.597 1.333 1.333s-0.597 1.333-1.333 1.333h-7.067c-4.13 0-5.619-5.404-1.987-7.429l15.473-8.804c1.16-0.644 0.782-2.434-0.686-2.434h-8.4c-0.736 0-1.333-0.597-1.333-1.333z"></path>
</symbol>
<symbol id="icon-cross" viewBox="0 0 32 32">
<path d="M31.708 25.708c-0-0-0-0-0-0l-9.708-9.708 9.708-9.708c0-0 0-0 0-0 0.105-0.105 0.18-0.227 0.229-0.357 0.133-0.356 0.057-0.771-0.229-1.057l-4.586-4.586c-0.286-0.286-0.702-0.361-1.057-0.229-0.13 0.048-0.252 0.124-0.357 0.228 0 0-0 0-0 0l-9.708 9.708-9.708-9.708c-0-0-0-0-0-0-0.105-0.104-0.227-0.18-0.357-0.228-0.356-0.133-0.771-0.057-1.057 0.229l-4.586 4.586c-0.286 0.286-0.361 0.702-0.229 1.057 0.049 0.13 0.124 0.252 0.229 0.357 0 0 0 0 0 0l9.708 9.708-9.708 9.708c-0 0-0 0-0 0-0.104 0.105-0.18 0.227-0.229 0.357-0.133 0.355-0.057 0.771 0.229 1.057l4.586 4.586c0.286 0.286 0.702 0.361 1.057 0.229 0.13-0.049 0.252-0.124 0.357-0.229 0-0 0-0 0-0l9.708-9.708 9.708 9.708c0 0 0 0 0 0 0.105 0.105 0.227 0.18 0.357 0.229 0.356 0.133 0.771 0.057 1.057-0.229l4.586-4.586c0.286-0.286 0.362-0.702 0.229-1.057-0.049-0.13-0.124-0.252-0.229-0.357z"></path>
</symbol>
<defs/>
</svg>